<svg data-v-423bf9ae="" xmlns="http://www.w3.org/2000/svg" viewBox="0 0 227.18720357483423 163" class="iconAbove"><!----><!----><!----><g data-v-423bf9ae="" id="2f864058-a3de-4d41-af6b-08b9d0b67bba" fill="white" transform="matrix(5.644402573287807,0,0,5.644402573287807,-2.201320840513688,103.33866696927288)"><path d="M3.93 10.50L3.93 9.34L2.80 9.34L2.80 1.16L3.78 1.16L3.78 0L0.50 0L0.50 1.16L2.06 1.16L2.06 1.26L1.53 1.58L1.53 9.34L0.39 9.34L0.39 10.50ZM5.32 10.50L6.59 10.50L6.59 5.46L6.44 2.25L6.48 2.25L7.39 5.35L9.03 10.50L10.39 10.50L10.39 0.04L9.11 0.04L9.11 3.72L9.35 7.71L9.31 7.71L8.23 3.79L7.04 0.04L5.32 0.04ZM13.45 7.03L12.19 7.03L12.19 8.95L13.73 10.57L15.74 10.57L17.28 8.95L17.28 6.12L13.52 3.49L13.52 2.03L14.29 1.20L15.18 1.20L15.96 2.03L15.96 3.12L17.22 3.12L17.22 1.51L15.72-0.06L13.76-0.06L12.26 1.51L12.26 4.14L16.03 6.78L16.03 8.44L15.20 9.31L14.28 9.31L13.45 8.44ZM20.43 10.50L20.43 0C19.33 0 20.24 0 19.15 0L19.15 10.50ZM26.39 3.50L27.66 3.50L27.66 1.60L26.11 0.04L23.98 0.04L22.43 1.60L22.43 8.86L23.97 10.50L26.12 10.50L27.66 8.86L27.66 4.80L24.98 4.80L24.98 6.06L26.39 6.06L26.39 8.36L25.54 9.28L24.56 9.28L23.70 8.36L23.70 2.11L24.54 1.26L25.55 1.26L26.39 2.11ZM30.86 10.50L30.86 5.88L33.22 5.88L33.22 10.50L34.50 10.50L34.50 0.04L33.22 0.04L33.22 4.66L30.86 4.66L30.86 0.04L29.58 0.04L29.58 10.50ZM37.51 10.50L38.78 10.50L38.78 1.15L40.64 1.15L40.64 0L35.66 0L35.66 1.15L37.51 1.15Z"></path></g><!----><g data-v-423bf9ae="" id="699e9f64-ed29-4797-8cbf-a63198bbf45a" transform="matrix(1.8202045594608365,0,0,1.8202045594608365,21.90835487916361,-47.83712664163713)" stroke="none" fill="white"><path d="M64.138 39.503a2.687 2.687 0 0 0-2.684 2.684 2.687 2.687 0 0 0 2.684 2.685 2.689 2.689 0 0 0 2.685-2.685 2.69 2.69 0 0 0-2.685-2.684zm0 4.166a1.484 1.484 0 0 1-1.482-1.482c0-.817.665-1.482 1.482-1.482s1.482.665 1.482 1.482-.665 1.482-1.482 1.482zM55.837 45.021a2.184 2.184 0 0 0 2.181-2.182 2.184 2.184 0 0 0-2.181-2.182 2.185 2.185 0 0 0-2.182 2.182c0 1.203.979 2.182 2.182 2.182zm0-3.162a.98.98 0 1 1-.002 1.956.98.98 0 0 1 .002-1.956zM45.308 40.657a2.185 2.185 0 0 0-2.182 2.182c0 1.203.979 2.182 2.182 2.182a2.185 2.185 0 0 0 2.182-2.182 2.186 2.186 0 0 0-2.182-2.182zm0 3.161a.98.98 0 1 1 .002-1.96.98.98 0 0 1-.002 1.96zM73.56 39.503a2.688 2.688 0 0 0-2.684 2.684 2.688 2.688 0 0 0 2.684 2.685 2.689 2.689 0 0 0 2.686-2.685 2.69 2.69 0 0 0-2.686-2.684zm0 4.166a1.484 1.484 0 0 1-1.481-1.482c0-.817.665-1.482 1.481-1.482.818 0 1.482.665 1.482 1.482s-.664 1.482-1.482 1.482zM68.85 40.461a2.688 2.688 0 0 0 2.684-2.685 2.688 2.688 0 0 0-2.684-2.684 2.689 2.689 0 0 0-2.686 2.684 2.689 2.689 0 0 0 2.686 2.685zm0-4.167c.816 0 1.481.665 1.481 1.481 0 .817-.665 1.482-1.481 1.482a1.482 1.482 0 0 1 0-2.963zM68.85 43.914c-1.48 0-2.686 1.203-2.686 2.684s1.205 2.684 2.686 2.684c1.479 0 2.684-1.204 2.684-2.684s-1.205-2.684-2.684-2.684zm0 4.166c-.818 0-1.482-.666-1.482-1.482s.664-1.482 1.482-1.482c.816 0 1.481.665 1.481 1.482s-.665 1.482-1.481 1.482zM59.746 48.648a4.187 4.187 0 0 0-4.183 4.182c0 2.306 1.877 4.182 4.183 4.182s4.183-1.876 4.183-4.182a4.187 4.187 0 0 0-4.183-4.182zm0 7.163a2.983 2.983 0 0 1-2.979-2.98 2.983 2.983 0 0 1 2.979-2.98 2.983 2.983 0 0 1 2.979 2.98 2.981 2.981 0 0 1-2.979 2.98z"></path><path d="M59.746 46.597a6.24 6.24 0 0 0-6.233 6.233 6.24 6.24 0 0 0 6.233 6.233 6.24 6.24 0 0 0 6.233-6.233 6.24 6.24 0 0 0-6.233-6.233zm0 11.265c-2.774 0-5.031-2.258-5.031-5.032s2.257-5.031 5.031-5.031 5.032 2.257 5.032 5.031-2.257 5.032-5.032 5.032zM32.512 38.005a4.187 4.187 0 0 0-4.182 4.182 4.187 4.187 0 0 0 4.182 4.182 4.187 4.187 0 0 0 4.182-4.182 4.187 4.187 0 0 0-4.182-4.182zm0 7.162c-1.643 0-2.98-1.337-2.98-2.98s1.337-2.98 2.98-2.98 2.98 1.337 2.98 2.98-1.337 2.98-2.98 2.98zM50.417 37.732c1.721 0 3.123-1.4 3.123-3.122a3.126 3.126 0 0 0-3.123-3.122 3.125 3.125 0 0 0-3.121 3.122 3.124 3.124 0 0 0 3.121 3.122zm0-5.041c1.059 0 1.919.861 1.919 1.919s-.86 1.919-1.919 1.919c-1.058 0-1.919-.861-1.919-1.919s.86-1.919 1.919-1.919z"></path><path d="M38.746 42.188a6.24 6.24 0 0 0-6.234-6.233 6.24 6.24 0 0 0-6.233 6.233 6.24 6.24 0 0 0 6.233 6.233 6.242 6.242 0 0 0 6.234-6.233zm-6.234 5.03a5.037 5.037 0 0 1-5.031-5.031 5.037 5.037 0 0 1 5.031-5.031 5.038 5.038 0 0 1 5.032 5.031 5.038 5.038 0 0 1-5.032 5.031zM46.271 51.018h-2.74v-2.742a.602.602 0 0 0-.601-.601h-3.083a.6.6 0 0 0-.601.601v2.742h-2.741a.602.602 0 0 0-.602.601v3.083c0 .332.269.602.602.602h2.741v2.741c0 .332.27.601.601.601h3.083a.6.6 0 0 0 .601-.601v-2.741h2.74c.333 0 .602-.27.602-.602v-3.083a.602.602 0 0 0-.602-.601zM45.67 54.1h-2.741a.603.603 0 0 0-.602.602v2.741h-1.88v-2.741a.603.603 0 0 0-.602-.602h-2.741v-1.879h2.741a.603.603 0 0 0 .602-.603v-2.741h1.88v2.741c0 .332.27.603.602.603h2.741V54.1z"></path><path d="M86.924 62.447c-1.734-13.343-8.877-27.961-9.181-28.577a1.2 1.2 0 0 0-.601-.572l-1.086-.471-.33-1.261a1.206 1.206 0 0 0-.104-.265c-.075-.14-.795-1.389-2.874-2.203-1.9-.743-6.634-2.473-9.53-2.473-.996 0-1.752.197-2.303.601-.389.196-2.152 1.038-3.782 1.038H43.354c-1.632 0-3.397-.843-3.783-1.038-.551-.405-1.306-.602-2.303-.602-2.896 0-7.629 1.729-9.53 2.473-2.079.814-2.799 2.063-2.875 2.203a1.21 1.21 0 0 0-.105.265l-.347 1.328-.823.454a1.207 1.207 0 0 0-.498.522c-.304.616-7.447 15.234-9.18 28.577-.649 4.994.06 8.709 2.108 11.04C18.01 75.754 20.683 76 21.74 76c.113 0 .214-.003.301-.007.169.05.35.076.536.076h.001c1.496-.001 3.629-1.428 10.613-8.95.681-.733 1.218-1.312 1.545-1.64 1.018-1.018 3.183-1.378 4.729-1.378.095 0 .153.002.161.002H61.205c.011 0 .068-.002.164-.002 1.545 0 3.71.36 4.729 1.378.327.328.864.906 1.545 1.64 6.983 7.523 9.118 8.95 10.613 8.95.186 0 .365-.026.536-.076.086.004.188.007.301.007 1.057 0 3.729-.246 5.723-2.514 2.047-2.33 2.756-6.045 2.108-11.039zM62.139 29.3c.07-.038.136-.082.196-.134.003-.001.193-.137.883-.137 2.558 0 7.271 1.767 8.653 2.308.971.379 1.424.845 1.583 1.041l.16.613c-8.351-3.798-11.228-.962-11.359-.824a.576.576 0 0 0-.05.059c-.002.004-.104.14-.323.405l-1.405-2.612c.953-.339 1.61-.69 1.662-.719zm-5.006 1.369c.746 0 1.491-.122 2.171-.292l1.738 3.229a63.012 63.012 0 0 1-2.435 2.56c-2.091 2.091-2.943 2.31-3.047 2.329H45.274c-.104-.02-.957-.238-3.047-2.329a61.837 61.837 0 0 1-2.524-2.66l1.662-3.086c.63.147 1.309.25 1.99.25h13.778zm-28.519.669c1.384-.542 6.097-2.308 8.654-2.308.689 0 .88.135.88.135.062.051.128.097.199.135.056.03.789.421 1.834.778l-1.317 2.446c-.157-.193-.233-.295-.236-.299a.576.576 0 0 0-.05-.059c-.134-.14-3.097-3.068-11.755 1.003l.208-.792c.16-.194.614-.66 1.583-1.039zM83.009 71.9c-1.345 1.53-3.187 1.695-3.916 1.695-.216 0-.347-.014-.348-.014a1.215 1.215 0 0 0-.565.063c-1.61-.442-6.983-6.23-8.774-8.161-.698-.751-1.249-1.345-1.608-1.704-1.88-1.879-5.121-2.083-6.428-2.083-.111 0-.188.002-.228.004h-21.45a4.906 4.906 0 0 0-.226-.004c-1.307 0-4.548.204-6.429 2.083-.359.359-.91.953-1.607 1.703-1.798 1.938-7.205 7.763-8.769 8.166a1.215 1.215 0 0 0-.564-.068c-.001 0-.134.015-.355.015-.729 0-2.572-.165-3.916-1.695-1.549-1.764-2.079-4.926-1.53-9.144 1.501-11.555 7.398-24.536 8.697-27.291 9.237-5.132 12.455-2.691 12.703-2.481.197.259 1.24 1.588 3.682 4.03 2.369 2.369 3.482 2.719 3.964 2.681h10.152c.021.001.046.003.07.003.517 0 1.634-.423 3.895-2.684 2.432-2.433 3.476-3.76 3.679-4.027.266-.223 3.156-2.361 11.189 1.676.073.054.153.1.238.137l.218.095c.344.178.698.37 1.06.571 1.296 2.748 7.194 15.723 8.697 27.291.547 4.218.019 7.379-1.531 9.143z"></path></g><!----></svg>