<svg data-v-423bf9ae="" xmlns="http://www.w3.org/2000/svg" viewBox="0 0 245.3208175333047 60" class="font"><!----><!----><!----><g data-v-423bf9ae="" id="bae318d9-3e4b-4371-bc32-99357cbf7a20" fill="black" transform="matrix(4.325882911682129,0,0,4.325882911682129,-5.753423690795898,-13.323719024658203)"><path d="M1.33 13.78L7.07 13.78L7.07 12.78L4.79 12.78L4.79 5.52L7.07 5.52L7.07 4.54L1.33 4.54L1.33 5.52L3.61 5.52L3.61 12.78L1.33 12.78ZM9.70 13.78L10.85 13.78L10.85 8.79C11.65 7.90 12.19 7.46 13.01 7.46C14.13 7.46 14.57 8.12 14.57 9.49L14.57 13.78L15.72 13.78L15.72 9.34C15.72 7.46 14.98 6.47 13.37 6.47C12.31 6.47 11.52 7.07 10.81 7.88L10.75 7.88L10.65 6.64L9.70 6.64ZM21.14 13.96C23.09 13.96 24.16 12.99 24.16 11.83C24.16 10.75 23.28 10.19 21.45 9.70C20.22 9.38 19.38 9.02 19.38 8.43C19.38 7.85 19.78 7.36 21.06 7.36C21.90 7.36 22.62 7.67 23.23 8.12L23.79 7.36C23.11 6.89 22.08 6.47 21.06 6.47C19.18 6.47 18.20 7.35 18.20 8.48C18.20 9.48 19.39 10.14 20.79 10.50C22.46 10.93 23.00 11.34 23.00 11.90C23.00 12.54 22.40 13.05 21.18 13.05C19.96 13.05 19.12 12.67 18.37 12.08L17.81 12.84C18.63 13.44 19.81 13.96 21.14 13.96ZM29.68 5.04C30.23 5.04 30.66 4.65 30.66 4.07C30.66 3.49 30.23 3.08 29.68 3.08C29.13 3.08 28.70 3.49 28.70 4.07C28.70 4.65 29.13 5.04 29.68 5.04ZM26.60 13.78L33.04 13.78L33.04 12.82L30.39 12.82L30.39 6.64L26.60 6.64L26.60 7.57L29.25 7.57L29.25 12.82L26.60 12.82ZM37.52 16.95C39.54 16.95 40.70 15.85 40.70 13.78L40.70 6.64L39.77 6.64L39.68 7.43L39.63 7.43C39.03 6.83 38.35 6.47 37.55 6.47C35.90 6.47 34.44 7.87 34.44 10.11C34.44 12.36 35.63 13.71 37.38 13.71C38.22 13.71 39.06 13.23 39.59 12.64L39.58 13.78C39.56 15.44 38.82 16.03 37.52 16.03C36.83 16.03 36.05 15.83 35.35 14.94L34.79 15.64C35.67 16.69 36.64 16.95 37.52 16.95ZM37.63 12.75C36.39 12.75 35.62 11.72 35.62 10.09C35.62 8.54 36.60 7.43 37.74 7.43C38.35 7.43 38.93 7.67 39.55 8.29L39.55 11.66C38.93 12.38 38.29 12.75 37.63 12.75ZM43.30 13.78L44.45 13.78L44.45 8.79C45.25 7.90 45.79 7.46 46.61 7.46C47.73 7.46 48.17 8.12 48.17 9.49L48.17 13.78L49.32 13.78L49.32 9.34C49.32 7.46 48.58 6.47 46.97 6.47C45.91 6.47 45.12 7.07 44.39 7.88L44.45 6.17L44.45 3.60L43.30 3.60ZM55.90 13.96C56.64 13.96 57.43 13.76 58.04 13.52L57.79 12.68C57.32 12.88 56.80 13.01 56.15 13.01C54.84 13.01 54.43 12.32 54.43 11.03L54.43 7.57L57.78 7.57L57.78 6.64L54.43 6.64L54.43 3.84L53.33 4.54L53.33 6.64L51.37 6.64L51.37 7.57L53.28 7.57L53.28 11.02C53.28 12.77 53.93 13.96 55.90 13.96Z"></path></g><!----><!----></svg>